<svg id="Layer_1" data-name="Layer 1" xmlns="http://www.w3.org/2000/svg" width="307" height="110" viewBox="0 0 307 110"><defs><style>.cls-1{fill:#a5a0a0;}.cls-2{fill:#383434;}.cls-3{fill:#bf0000;}</style></defs><rect class="cls-1" x="28" y="31" width="266" height="64"/><rect class="cls-2" x="11" y="14" width="266" height="64"/><path class="cls-3" d="M115.62,30.56A5.91,5.91,0,0,1,118.38,32a4.27,4.27,0,0,1,1.31,3.07,5.22,5.22,0,0,1-1,2.94,17,17,0,0,1-3.78,3.62,9.8,9.8,0,0,1,3.45.77,3.34,3.34,0,0,1,1.54,1.44,7.16,7.16,0,0,1,.44,2.94v6.05a19.7,19.7,0,0,0-10.66,4.36,11.08,11.08,0,0,0-2.91-1.5A15,15,0,0,0,102,55a8.83,8.83,0,0,0-5,1.27c-.84.56-1.27,1.12-1.27,1.69a2.2,2.2,0,0,0,.36.94,2.14,2.14,0,0,1,.36,1,.85.85,0,0,1-.26.62.83.83,0,0,1-.58.26,1.17,1.17,0,0,1-.89-.47,1.8,1.8,0,0,1-.39-1.2,3.3,3.3,0,0,1,.48-1.56A13.73,13.73,0,0,1,96.9,55,15.94,15.94,0,0,0,99,52.61a2.79,2.79,0,0,0,.45-1.41,1.71,1.71,0,0,0-.52-1.27,1.79,1.79,0,0,0-1.31-.5,1.68,1.68,0,0,0-1.17.4,2.24,2.24,0,0,0-.62,1.34h-.64c0-.22,0-.39,0-.49a3.2,3.2,0,0,1,1-2.42,3.63,3.63,0,0,1,2.64-1l.6,0a4.89,4.89,0,0,0-.51-2.5,2.58,2.58,0,0,0-2.35-1.25,3.06,3.06,0,0,0-1.74.51,2.75,2.75,0,0,0-.8,1.09l-.68-.23a4,4,0,0,1,1.31-2.69,4.23,4.23,0,0,1,2.89-1,15.84,15.84,0,0,1,1.62.11,13.48,13.48,0,0,1,.45-3.61,5.62,5.62,0,0,1,1.31-2.07,22.85,22.85,0,0,1,3.46-2.61,13.52,13.52,0,0,1-4.08.8,12.62,12.62,0,0,1-2.81-.42A7.77,7.77,0,0,0,96,33.22a1.82,1.82,0,0,0-1.33.54,3.12,3.12,0,0,0-.72,1.9h-.67A6.44,6.44,0,0,1,93.88,33a4.15,4.15,0,0,1,1.64-1.74,4.52,4.52,0,0,1,2.34-.67,14.7,14.7,0,0,1,3,.53,15.19,15.19,0,0,0,3.45.53,8.33,8.33,0,0,0,1.88-.21,14.74,14.74,0,0,0,2.38-.85l.36.79a13.67,13.67,0,0,0-5.07,3.59,7.81,7.81,0,0,0-1.26,4.65v7.23a10.3,10.3,0,0,1-.53,3.69,10.12,10.12,0,0,1-2.12,3,9.69,9.69,0,0,0,4.18-2.83,7.68,7.68,0,0,0,1.07-4.44V41.05a14.21,14.21,0,0,1,.64-5.11,5.62,5.62,0,0,1,2.33-2.54A37.89,37.89,0,0,1,115.62,30.56Zm-3,1.72A10.58,10.58,0,0,0,110,33.74a3.07,3.07,0,0,0-.92,1.41,10.47,10.47,0,0,0-.25,2.77v7.2a8.89,8.89,0,0,1-.36,2.91A5,5,0,0,1,107.14,50a26.83,26.83,0,0,1-4.06,2.73,20.23,20.23,0,0,1,3.08-.25,15.28,15.28,0,0,1,4.58.67V38.46h.78V43a12.41,12.41,0,0,0,3.58-3,5.36,5.36,0,0,0,1.16-3.33,3.77,3.77,0,0,0-.9-2.53A7.59,7.59,0,0,0,112.58,32.28Zm-1.06,13.28a6.88,6.88,0,0,0,5.2,0,3.22,3.22,0,0,0-.54-2,5,5,0,0,0-2.06-1.39c-1.28.84-2.15,1.39-2.6,1.63Zm5.2.77a7.9,7.9,0,0,1-2.6.53,7.35,7.35,0,0,1-2.6-.53v3.13a7.34,7.34,0,0,1,2.53-.49,8.83,8.83,0,0,1,2.67.49Zm0,3.94a8.31,8.31,0,0,0-2.74-.58,5.88,5.88,0,0,0-2.46.58V53.4a10.66,10.66,0,0,1,1.42.76,18.07,18.07,0,0,1,3.78-1.47Z"/><path class="cls-3" d="M135.77,38.46l3.13,2.61-1.42,1.29v9.23a4.31,4.31,0,0,0,.45,2.28q.28.48.63.48a2.33,2.33,0,0,0,1-.56l.43.54-3.74,2.87a6.17,6.17,0,0,1-1.83-1.77,5.71,5.71,0,0,1-.46-2.49,46.15,46.15,0,0,0-5.56,4.26,8.16,8.16,0,0,1-2.23-2.35,5.77,5.77,0,0,1-.52-2.66V43.5a2.69,2.69,0,0,0-.17-1.19.87.87,0,0,0-.78-.5,2.17,2.17,0,0,0-1.1.6l-.43-.54,4.15-3.41,3.19,2.61-1.31,1.17v9.34a3.34,3.34,0,0,0,.26,1.53,4.55,4.55,0,0,0,1.28,1.22L133.93,52v-9.6l-1.25-1.29Z"/><path class="cls-3" d="M141.44,40.38l4.9-6.05h.51l-.18,4.85h3.54v2h-3.54V53l2,1.46,1.13-.88.44.53-3.88,3.1a10.16,10.16,0,0,0-4.47-2.75V54.1a2.43,2.43,0,0,0,.93-1,4.71,4.71,0,0,0,.3-1.89V41.15h-1.65Z"/><path class="cls-3" d="M151.54,40.38l4.91-6.05H157l-.18,4.85h3.53v2h-3.53V53l2,1.46,1.12-.88.44.53-3.87,3.1A10.13,10.13,0,0,0,152,54.45V54.1a2.53,2.53,0,0,0,.94-1,4.71,4.71,0,0,0,.3-1.89V41.15h-1.66Z"/><path class="cls-3" d="M174.89,41V54.17a32.86,32.86,0,0,0-3.82,1.76,9.24,9.24,0,0,0-1.73,1.27,24.37,24.37,0,0,0-4.22-2.15,10,10,0,0,0-2.87-.53l-.18-.35a2.72,2.72,0,0,0,.85-1,6,6,0,0,0,.24-2V41.48a16.18,16.18,0,0,0,5.51-3A19.87,19.87,0,0,0,174.89,41Zm-8.18,11.45,4.59,1.88V43.19c-1.44-.68-2.46-1.12-3.06-1.34a9.94,9.94,0,0,0-1.53-.39Z"/><path class="cls-3" d="M189.27,38.46l2.4,2.63,1.72-1.65.5.48a6.65,6.65,0,0,0-1.51,1.71,5.19,5.19,0,0,0-.35,2.13v8.38a3.15,3.15,0,0,0,.37,1.73.62.62,0,0,0,.51.37,3.35,3.35,0,0,0,1.16-.68l.43.54-3.77,3.1a6.46,6.46,0,0,1-1.88-2,6.74,6.74,0,0,1-.41-2.73V42.9l-1.55-1.64-3,2.4v9.76l1.32,1.25L182.1,57.2,179,54.67l1.32-1.25v-9a5.7,5.7,0,0,0-.39-2.58c-.17-.31-.37-.46-.6-.46s-.59.23-1.06.69l-.43-.55,3.74-3.09a7.9,7.9,0,0,1,1.94,1.82,3.75,3.75,0,0,1,.39,1.87v.63Z"/></svg>